M48
; DRILL file {KiCad 9.0.2} date 2026-02-28T13:04:42-0500
; FORMAT={-:-/ absolute / metric / decimal}
; #@! TF.CreationDate,2026-02-28T13:04:42-05:00
; #@! TF.GenerationSoftware,Kicad,Pcbnew,9.0.2
; #@! TF.FileFunction,NonPlated,1,2,NPTH
FMAT,2
METRIC
; #@! TA.AperFunction,NonPlated,NPTH,ComponentDrill
T1C1.702
; #@! TA.AperFunction,NonPlated,NPTH,ComponentDrill
T2C3.988
%
G90
G05
T1
X65.977Y-33.16
X65.977Y-52.108
X65.977Y-71.056
X65.977Y-90.005
X76.136Y-33.16
X76.136Y-52.108
X76.136Y-71.056
X76.136Y-90.005
X84.925Y-33.16
X84.925Y-52.108
X84.925Y-71.056
X84.925Y-90.005
X95.085Y-33.16
X95.085Y-52.108
X95.085Y-71.056
X95.085Y-90.005
X103.873Y-33.16
X103.873Y-52.108
X103.873Y-71.056
X103.873Y-90.005
X114.033Y-33.16
X114.033Y-52.108
X114.033Y-71.056
X114.033Y-90.005
T2
X71.056Y-33.16
X71.056Y-52.108
X71.056Y-71.056
X71.056Y-90.005
X90.005Y-33.16
X90.005Y-52.108
X90.005Y-71.056
X90.005Y-90.005
X108.953Y-33.16
X108.953Y-52.108
X108.953Y-71.056
X108.953Y-90.005
M30
