%TF.GenerationSoftware,KiCad,Pcbnew,9.0.2*%
%TF.CreationDate,2026-02-28T13:04:45-05:00*%
%TF.ProjectId,MacroPad,4d616372-6f50-4616-942e-6b696361645f,rev?*%
%TF.SameCoordinates,Original*%
%TF.FileFunction,Copper,L1,Top*%
%TF.FilePolarity,Positive*%
%FSLAX46Y46*%
G04 Gerber Fmt 4.6, Leading zero omitted, Abs format (unit mm)*
G04 Created by KiCad (PCBNEW 9.0.2) date 2026-02-28 13:04:45*
%MOMM*%
%LPD*%
G01*
G04 APERTURE LIST*
G04 Aperture macros list*
%AMHorizOval*
0 Thick line with rounded ends*
0 $1 width*
0 $2 $3 position (X,Y) of the first rounded end (center of the circle)*
0 $4 $5 position (X,Y) of the second rounded end (center of the circle)*
0 Add line between two ends*
20,1,$1,$2,$3,$4,$5,0*
0 Add two circle primitives to create the rounded ends*
1,1,$1,$2,$3*
1,1,$1,$4,$5*%
G04 Aperture macros list end*
%TA.AperFunction,ComponentPad*%
%ADD10R,1.752600X1.752600*%
%TD*%
%TA.AperFunction,ComponentPad*%
%ADD11C,1.752600*%
%TD*%
%TA.AperFunction,ComponentPad*%
%ADD12HorizOval,2.500000X-0.019724X0.289328X0.019724X-0.289328X0*%
%TD*%
%TA.AperFunction,ComponentPad*%
%ADD13HorizOval,2.500000X-0.604462X0.948815X0.604462X-0.948815X0*%
%TD*%
%TA.AperFunction,SMDPad,CuDef*%
%ADD14R,2.500000X0.500000*%
%TD*%
%TA.AperFunction,ComponentPad*%
%ADD15C,1.600000*%
%TD*%
%TA.AperFunction,ComponentPad*%
%ADD16R,1.600000X1.600000*%
%TD*%
%TA.AperFunction,SMDPad,CuDef*%
%ADD17R,1.200000X1.200000*%
%TD*%
%TA.AperFunction,ViaPad*%
%ADD18C,0.600000*%
%TD*%
%TA.AperFunction,Conductor*%
%ADD19C,0.200000*%
%TD*%
G04 APERTURE END LIST*
D10*
%TO.P,U1,1,TX*%
%TO.N,unconnected-(U1-TX-Pad1)*%
X63436500Y-23926800D03*
D11*
%TO.P,U1,2,RX*%
%TO.N,unconnected-(U1-RX-Pad2)*%
X63436500Y-26466800D03*
%TO.P,U1,3,GND*%
%TO.N,unconnected-(U1-GND-Pad3)*%
X63436500Y-29006800D03*
%TO.P,U1,4,GND*%
%TO.N,unconnected-(U1-GND-Pad4)*%
X63436500Y-31546800D03*
%TO.P,U1,5,SDA*%
%TO.N,unconnected-(U1-SDA-Pad5)*%
X63436500Y-34086800D03*
%TO.P,U1,6,SCL*%
%TO.N,unconnected-(U1-SCL-Pad6)*%
X63436500Y-36626800D03*
%TO.P,U1,7,D4*%
%TO.N,Col0*%
X63436500Y-39166800D03*
%TO.P,U1,8,C6*%
%TO.N,Col1*%
X63436500Y-41706800D03*
%TO.P,U1,9,D7*%
%TO.N,Col2*%
X63436500Y-44246800D03*
%TO.P,U1,10,E6*%
%TO.N,unconnected-(U1-E6-Pad10)*%
X63436500Y-46786800D03*
%TO.P,U1,11,B4*%
%TO.N,unconnected-(U1-B4-Pad11)*%
X63436500Y-49326800D03*
%TO.P,U1,12,B5*%
%TO.N,unconnected-(U1-B5-Pad12)*%
X63436500Y-51866800D03*
%TO.P,U1,24,RAW*%
%TO.N,unconnected-(U1-RAW-Pad24)*%
X78676500Y-51866800D03*
%TO.P,U1,23,GND*%
%TO.N,unconnected-(U1-GND-Pad23)*%
X78676500Y-49326800D03*
%TO.P,U1,22,RST*%
%TO.N,unconnected-(U1-RST-Pad22)*%
X78676500Y-46786800D03*
%TO.P,U1,21,VCC*%
%TO.N,unconnected-(U1-VCC-Pad21)*%
X78676500Y-44246800D03*
%TO.P,U1,20,F4*%
%TO.N,unconnected-(U1-F4-Pad20)*%
X78676500Y-41706800D03*
%TO.P,U1,19,F5*%
%TO.N,Row3*%
X78676500Y-39166800D03*
%TO.P,U1,18,F6*%
%TO.N,Row2*%
X78676500Y-36626800D03*
%TO.P,U1,17,F7*%
%TO.N,Row1*%
X78676500Y-34086800D03*
%TO.P,U1,16,B1*%
%TO.N,Row0*%
X78676500Y-31546800D03*
%TO.P,U1,15,B3*%
%TO.N,unconnected-(U1-B3-Pad15)*%
X78676500Y-29006800D03*
%TO.P,U1,14,B2*%
%TO.N,unconnected-(U1-B2-Pad14)*%
X78676500Y-26466800D03*
%TO.P,U1,13,B6*%
%TO.N,unconnected-(U1-B6-Pad13)*%
X78676500Y-23926800D03*
%TD*%
D12*
%TO.P,K1,2*%
%TO.N,Col0*%
X68536500Y-28369700D03*
D13*
%TO.P,K1,1*%
%TO.N,Net-(D1-Pad2)*%
X74311500Y-29639700D03*
%TD*%
D12*
%TO.P,K3,2*%
%TO.N,Col2*%
X106433300Y-28369700D03*
D13*
%TO.P,K3,1*%
%TO.N,Net-(D3-Pad2)*%
X112208300Y-29639700D03*
%TD*%
D12*
%TO.P,K5,2*%
%TO.N,Col1*%
X87484900Y-47318100D03*
D13*
%TO.P,K5,1*%
%TO.N,Net-(D5-Pad2)*%
X93259900Y-48588100D03*
%TD*%
D12*
%TO.P,K7,2*%
%TO.N,Col0*%
X68536500Y-66266500D03*
D13*
%TO.P,K7,1*%
%TO.N,Net-(D7-Pad2)*%
X74311500Y-67536500D03*
%TD*%
%TO.P,K9,1*%
%TO.N,Net-(D9-Pad2)*%
X112208300Y-67536500D03*
D12*
%TO.P,K9,2*%
%TO.N,Col2*%
X106433300Y-66266500D03*
%TD*%
D14*
%TO.P,D6,2*%
%TO.N,Net-(D6-Pad2)*%
X111653300Y-56845200D03*
%TO.P,D6,1*%
%TO.N,Row1*%
X106253300Y-56845200D03*
D15*
%TO.P,D6,2*%
%TO.N,Net-(D6-Pad2)*%
X112853300Y-56845200D03*
D16*
%TO.P,D6,1*%
%TO.N,Row1*%
X105053300Y-56845200D03*
D17*
X107378300Y-56845200D03*
%TO.P,D6,2*%
%TO.N,Net-(D6-Pad2)*%
X110528300Y-56845200D03*
%TD*%
D14*
%TO.P,D2,2*%
%TO.N,Net-(D2-Pad2)*%
X92704900Y-37896800D03*
%TO.P,D2,1*%
%TO.N,Row0*%
X87304900Y-37896800D03*
D15*
%TO.P,D2,2*%
%TO.N,Net-(D2-Pad2)*%
X93904900Y-37896800D03*
D16*
%TO.P,D2,1*%
%TO.N,Row0*%
X86104900Y-37896800D03*
D17*
X88429900Y-37896800D03*
%TO.P,D2,2*%
%TO.N,Net-(D2-Pad2)*%
X91579900Y-37896800D03*
%TD*%
D14*
%TO.P,D8,2*%
%TO.N,Net-(D8-Pad2)*%
X92704900Y-75793600D03*
%TO.P,D8,1*%
%TO.N,Row2*%
X87304900Y-75793600D03*
D15*
%TO.P,D8,2*%
%TO.N,Net-(D8-Pad2)*%
X93904900Y-75793600D03*
D16*
%TO.P,D8,1*%
%TO.N,Row2*%
X86104900Y-75793600D03*
D17*
X88429900Y-75793600D03*
%TO.P,D8,2*%
%TO.N,Net-(D8-Pad2)*%
X91579900Y-75793600D03*
%TD*%
D14*
%TO.P,D12,2*%
%TO.N,Net-(D12-Pad2)*%
X111653300Y-94742000D03*
%TO.P,D12,1*%
%TO.N,Row3*%
X106253300Y-94742000D03*
D15*
%TO.P,D12,2*%
%TO.N,Net-(D12-Pad2)*%
X112853300Y-94742000D03*
D16*
%TO.P,D12,1*%
%TO.N,Row3*%
X105053300Y-94742000D03*
D17*
X107378300Y-94742000D03*
%TO.P,D12,2*%
%TO.N,Net-(D12-Pad2)*%
X110528300Y-94742000D03*
%TD*%
D14*
%TO.P,D7,2*%
%TO.N,Net-(D7-Pad2)*%
X73756500Y-75793600D03*
%TO.P,D7,1*%
%TO.N,Row2*%
X68356500Y-75793600D03*
D15*
%TO.P,D7,2*%
%TO.N,Net-(D7-Pad2)*%
X74956500Y-75793600D03*
D16*
%TO.P,D7,1*%
%TO.N,Row2*%
X67156500Y-75793600D03*
D17*
X69481500Y-75793600D03*
%TO.P,D7,2*%
%TO.N,Net-(D7-Pad2)*%
X72631500Y-75793600D03*
%TD*%
D14*
%TO.P,D5,2*%
%TO.N,Net-(D5-Pad2)*%
X92704900Y-56845200D03*
%TO.P,D5,1*%
%TO.N,Row1*%
X87304900Y-56845200D03*
D15*
%TO.P,D5,2*%
%TO.N,Net-(D5-Pad2)*%
X93904900Y-56845200D03*
D16*
%TO.P,D5,1*%
%TO.N,Row1*%
X86104900Y-56845200D03*
D17*
X88429900Y-56845200D03*
%TO.P,D5,2*%
%TO.N,Net-(D5-Pad2)*%
X91579900Y-56845200D03*
%TD*%
D14*
%TO.P,D3,2*%
%TO.N,Net-(D3-Pad2)*%
X111653300Y-37896800D03*
%TO.P,D3,1*%
%TO.N,Row0*%
X106253300Y-37896800D03*
D15*
%TO.P,D3,2*%
%TO.N,Net-(D3-Pad2)*%
X112853300Y-37896800D03*
D16*
%TO.P,D3,1*%
%TO.N,Row0*%
X105053300Y-37896800D03*
D17*
X107378300Y-37896800D03*
%TO.P,D3,2*%
%TO.N,Net-(D3-Pad2)*%
X110528300Y-37896800D03*
%TD*%
D14*
%TO.P,D1,2*%
%TO.N,Net-(D1-Pad2)*%
X73756500Y-37896800D03*
%TO.P,D1,1*%
%TO.N,Row0*%
X68356500Y-37896800D03*
D15*
%TO.P,D1,2*%
%TO.N,Net-(D1-Pad2)*%
X74956500Y-37896800D03*
D16*
%TO.P,D1,1*%
%TO.N,Row0*%
X67156500Y-37896800D03*
D17*
X69481500Y-37896800D03*
%TO.P,D1,2*%
%TO.N,Net-(D1-Pad2)*%
X72631500Y-37896800D03*
%TD*%
D14*
%TO.P,D9,2*%
%TO.N,Net-(D9-Pad2)*%
X111653300Y-75793600D03*
%TO.P,D9,1*%
%TO.N,Row2*%
X106253300Y-75793600D03*
D15*
%TO.P,D9,2*%
%TO.N,Net-(D9-Pad2)*%
X112853300Y-75793600D03*
D16*
%TO.P,D9,1*%
%TO.N,Row2*%
X105053300Y-75793600D03*
D17*
X107378300Y-75793600D03*
%TO.P,D9,2*%
%TO.N,Net-(D9-Pad2)*%
X110528300Y-75793600D03*
%TD*%
D14*
%TO.P,D10,2*%
%TO.N,Net-(D10-Pad2)*%
X73756500Y-94742000D03*
%TO.P,D10,1*%
%TO.N,Row3*%
X68356500Y-94742000D03*
D15*
%TO.P,D10,2*%
%TO.N,Net-(D10-Pad2)*%
X74956500Y-94742000D03*
D16*
%TO.P,D10,1*%
%TO.N,Row3*%
X67156500Y-94742000D03*
D17*
X69481500Y-94742000D03*
%TO.P,D10,2*%
%TO.N,Net-(D10-Pad2)*%
X72631500Y-94742000D03*
%TD*%
D14*
%TO.P,D11,2*%
%TO.N,Net-(D11-Pad2)*%
X92704900Y-94742000D03*
%TO.P,D11,1*%
%TO.N,Row3*%
X87304900Y-94742000D03*
D15*
%TO.P,D11,2*%
%TO.N,Net-(D11-Pad2)*%
X93904900Y-94742000D03*
D16*
%TO.P,D11,1*%
%TO.N,Row3*%
X86104900Y-94742000D03*
D17*
X88429900Y-94742000D03*
%TO.P,D11,2*%
%TO.N,Net-(D11-Pad2)*%
X91579900Y-94742000D03*
%TD*%
D14*
%TO.P,D4,2*%
%TO.N,Net-(D4-Pad2)*%
X73756500Y-56845200D03*
%TO.P,D4,1*%
%TO.N,Row1*%
X68356500Y-56845200D03*
D15*
%TO.P,D4,2*%
%TO.N,Net-(D4-Pad2)*%
X74956500Y-56845200D03*
D16*
%TO.P,D4,1*%
%TO.N,Row1*%
X67156500Y-56845200D03*
D17*
X69481500Y-56845200D03*
%TO.P,D4,2*%
%TO.N,Net-(D4-Pad2)*%
X72631500Y-56845200D03*
%TD*%
D12*
%TO.P,K2,2*%
%TO.N,Col1*%
X87484900Y-28369700D03*
D13*
%TO.P,K2,1*%
%TO.N,Net-(D2-Pad2)*%
X93259900Y-29639700D03*
%TD*%
D12*
%TO.P,K4,2*%
%TO.N,Col0*%
X68536500Y-47318100D03*
D13*
%TO.P,K4,1*%
%TO.N,Net-(D4-Pad2)*%
X74311500Y-48588100D03*
%TD*%
D12*
%TO.P,K6,2*%
%TO.N,Col2*%
X106433300Y-47318100D03*
D13*
%TO.P,K6,1*%
%TO.N,Net-(D6-Pad2)*%
X112208300Y-48588100D03*
%TD*%
D12*
%TO.P,K8,2*%
%TO.N,Col1*%
X87484900Y-66266500D03*
D13*
%TO.P,K8,1*%
%TO.N,Net-(D8-Pad2)*%
X93259900Y-67536500D03*
%TD*%
D12*
%TO.P,K10,2*%
%TO.N,Col0*%
X68536500Y-85214900D03*
D13*
%TO.P,K10,1*%
%TO.N,Net-(D10-Pad2)*%
X74311500Y-86484900D03*
%TD*%
D12*
%TO.P,K11,2*%
%TO.N,Col1*%
X87484900Y-85214900D03*
D13*
%TO.P,K11,1*%
%TO.N,Net-(D11-Pad2)*%
X93259900Y-86484900D03*
%TD*%
D12*
%TO.P,K12,2*%
%TO.N,Col2*%
X106433300Y-85214900D03*
D13*
%TO.P,K12,1*%
%TO.N,Net-(D12-Pad2)*%
X112208300Y-86484900D03*
%TD*%
D18*
%TO.N,Col2*%
X85642790Y-44627460D03*
X84323000Y-45004727D03*
%TD*%
D19*
%TO.N,Col2*%
X84700267Y-44627460D02*
X84323000Y-45004727D01*
X85642790Y-44627460D02*
X84700267Y-44627460D01*
%TO.N,Row3*%
X80530700Y-89167800D02*
X80530700Y-41021000D01*
X80530700Y-41021000D02*
X78676500Y-39166800D01*
X86104900Y-94742000D02*
X80530700Y-89167800D01*
%TO.N,Row2*%
X82899250Y-40849550D02*
X78676500Y-36626800D01*
X82899250Y-72587950D02*
X82899250Y-40849550D01*
X86104900Y-75793600D02*
X82899250Y-72587950D01*
%TO.N,Row1*%
X83723000Y-39133300D02*
X78676500Y-34086800D01*
X83723000Y-54463300D02*
X83723000Y-39133300D01*
X86104900Y-56845200D02*
X83723000Y-54463300D01*
%TO.N,Col0*%
X68536500Y-35149800D02*
X68536500Y-28369700D01*
X70382500Y-36995800D02*
X68536500Y-35149800D01*
X68536500Y-47318100D02*
X70382500Y-45472100D01*
X70382500Y-45472100D02*
X70382500Y-36995800D01*
X70382500Y-64420500D02*
X70382500Y-55944200D01*
X68536500Y-54098200D02*
X68536500Y-47318100D01*
X68536500Y-66266500D02*
X70382500Y-64420500D01*
X70382500Y-55944200D02*
X68536500Y-54098200D01*
X68536500Y-71852689D02*
X68536500Y-66266500D01*
X71056500Y-74372689D02*
X68536500Y-71852689D01*
X71056500Y-82694900D02*
X71056500Y-74372689D01*
X68536500Y-85214900D02*
X71056500Y-82694900D01*
%TO.N,Col2*%
X106433300Y-33955888D02*
X106433300Y-28369700D01*
X108279300Y-35801888D02*
X106433300Y-33955888D01*
X108279300Y-45472100D02*
X108279300Y-35801888D01*
X106433300Y-47318100D02*
X108279300Y-45472100D01*
X106433300Y-52904289D02*
X106433300Y-47318100D01*
X108953300Y-55424289D02*
X106433300Y-52904289D01*
X108953300Y-63746500D02*
X108953300Y-55424289D01*
X106433300Y-66266500D02*
X108953300Y-63746500D01*
X106433300Y-73046600D02*
X106433300Y-66266500D01*
X108279300Y-83368900D02*
X108279300Y-74892600D01*
X106433300Y-85214900D02*
X108279300Y-83368900D01*
X108279300Y-74892600D02*
X106433300Y-73046600D01*
%TO.N,Col1*%
X87484900Y-35149800D02*
X87484900Y-28369700D01*
X89330900Y-36995800D02*
X87484900Y-35149800D01*
X89330900Y-45472100D02*
X89330900Y-36995800D01*
X87484900Y-47318100D02*
X89330900Y-45472100D01*
X89330900Y-64420500D02*
X89330900Y-54750288D01*
X89330900Y-54750288D02*
X87484900Y-52904288D01*
X87484900Y-66266500D02*
X89330900Y-64420500D01*
X87484900Y-52904288D02*
X87484900Y-47318100D01*
X87484900Y-73046600D02*
X87484900Y-66266500D01*
X89330900Y-83368900D02*
X89330900Y-74892600D01*
X87484900Y-85214900D02*
X89330900Y-83368900D01*
X89330900Y-74892600D02*
X87484900Y-73046600D01*
%TO.N,Net-(D11-Pad2)*%
X93259900Y-94097000D02*
X93904900Y-94742000D01*
X93259900Y-86484900D02*
X93259900Y-94097000D01*
%TO.N,Net-(D12-Pad2)*%
X112208300Y-94097000D02*
X112853300Y-94742000D01*
X112208300Y-86484900D02*
X112208300Y-94097000D01*
%TO.N,Net-(D9-Pad2)*%
X112208300Y-75148600D02*
X112853300Y-75793600D01*
X112208300Y-67536500D02*
X112208300Y-75148600D01*
%TO.N,Net-(D8-Pad2)*%
X93259900Y-75148600D02*
X93904900Y-75793600D01*
X93259900Y-67536500D02*
X93259900Y-75148600D01*
%TO.N,Net-(D7-Pad2)*%
X74311500Y-75148600D02*
X74956500Y-75793600D01*
X74311500Y-67536500D02*
X74311500Y-75148600D01*
%TO.N,Net-(D4-Pad2)*%
X74311500Y-56200200D02*
X74956500Y-56845200D01*
X74311500Y-48588100D02*
X74311500Y-56200200D01*
%TO.N,Net-(D5-Pad2)*%
X93259900Y-56200200D02*
X93904900Y-56845200D01*
X93259900Y-48588100D02*
X93259900Y-56200200D01*
%TO.N,Net-(D6-Pad2)*%
X112208300Y-56200200D02*
X112853300Y-56845200D01*
X112208300Y-48588100D02*
X112208300Y-56200200D01*
%TO.N,Net-(D3-Pad2)*%
X112208300Y-37251800D02*
X112853300Y-37896800D01*
X112208300Y-29639700D02*
X112208300Y-37251800D01*
%TO.N,Net-(D2-Pad2)*%
X93259900Y-37251800D02*
X93904900Y-37896800D01*
X93259900Y-29639700D02*
X93259900Y-37251800D01*
%TO.N,Net-(D1-Pad2)*%
X74311500Y-36414700D02*
X75793600Y-37896800D01*
X74311500Y-29639700D02*
X74311500Y-36414700D01*
%TO.N,Net-(D10-Pad2)*%
X74311500Y-86484900D02*
X74311500Y-94097000D01*
X74311500Y-94097000D02*
X74956500Y-94742000D01*
%TD*%
M02*
