%TF.GenerationSoftware,KiCad,Pcbnew,9.0.2*%
%TF.CreationDate,2026-02-28T13:04:45-05:00*%
%TF.ProjectId,MacroPad,4d616372-6f50-4616-942e-6b696361645f,rev?*%
%TF.SameCoordinates,Original*%
%TF.FileFunction,Soldermask,Bot*%
%TF.FilePolarity,Negative*%
%FSLAX46Y46*%
G04 Gerber Fmt 4.6, Leading zero omitted, Abs format (unit mm)*
G04 Created by KiCad (PCBNEW 9.0.2) date 2026-02-28 13:04:45*
%MOMM*%
%LPD*%
G01*
G04 APERTURE LIST*
G04 Aperture macros list*
%AMHorizOval*
0 Thick line with rounded ends*
0 $1 width*
0 $2 $3 position (X,Y) of the first rounded end (center of the circle)*
0 $4 $5 position (X,Y) of the second rounded end (center of the circle)*
0 Add line between two ends*
20,1,$1,$2,$3,$4,$5,0*
0 Add two circle primitives to create the rounded ends*
1,1,$1,$2,$3*
1,1,$1,$4,$5*%
G04 Aperture macros list end*
%ADD10R,1.752600X1.752600*%
%ADD11C,1.752600*%
%ADD12HorizOval,2.500000X-0.019724X0.289328X0.019724X-0.289328X0*%
%ADD13HorizOval,2.500000X-0.604462X0.948815X0.604462X-0.948815X0*%
%ADD14C,1.701800*%
%ADD15C,3.987800*%
%ADD16C,1.600000*%
%ADD17R,1.600000X1.600000*%
G04 APERTURE END LIST*
D10*
%TO.C,U1*%
X63436500Y-23926800D03*
D11*
X63436500Y-26466800D03*
X63436500Y-29006800D03*
X63436500Y-31546800D03*
X63436500Y-34086800D03*
X63436500Y-36626800D03*
X63436500Y-39166800D03*
X63436500Y-41706800D03*
X63436500Y-44246800D03*
X63436500Y-46786800D03*
X63436500Y-49326800D03*
X63436500Y-51866800D03*
X78676500Y-51866800D03*
X78676500Y-49326800D03*
X78676500Y-46786800D03*
X78676500Y-44246800D03*
X78676500Y-41706800D03*
X78676500Y-39166800D03*
X78676500Y-36626800D03*
X78676500Y-34086800D03*
X78676500Y-31546800D03*
X78676500Y-29006800D03*
X78676500Y-26466800D03*
X78676500Y-23926800D03*
%TD*%
D12*
%TO.C,K1*%
X68536500Y-28369700D03*
D13*
X74311500Y-29639700D03*
D14*
X65976500Y-33159700D03*
D15*
X71056500Y-33159700D03*
D14*
X76136500Y-33159700D03*
%TD*%
D12*
%TO.C,K3*%
X106433300Y-28369700D03*
D13*
X112208300Y-29639700D03*
D14*
X103873300Y-33159700D03*
D15*
X108953300Y-33159700D03*
D14*
X114033300Y-33159700D03*
%TD*%
D12*
%TO.C,K5*%
X87484900Y-47318100D03*
D13*
X93259900Y-48588100D03*
D14*
X84924900Y-52108100D03*
D15*
X90004900Y-52108100D03*
D14*
X95084900Y-52108100D03*
%TD*%
D12*
%TO.C,K7*%
X68536500Y-66266500D03*
D13*
X74311500Y-67536500D03*
D14*
X65976500Y-71056500D03*
D15*
X71056500Y-71056500D03*
D14*
X76136500Y-71056500D03*
%TD*%
%TO.C,K9*%
X114033300Y-71056500D03*
D15*
X108953300Y-71056500D03*
D14*
X103873300Y-71056500D03*
D13*
X112208300Y-67536500D03*
D12*
X106433300Y-66266500D03*
%TD*%
D16*
%TO.C,D6*%
X112853300Y-56845200D03*
D17*
X105053300Y-56845200D03*
%TD*%
D16*
%TO.C,D2*%
X93904900Y-37896800D03*
D17*
X86104900Y-37896800D03*
%TD*%
D16*
%TO.C,D8*%
X93904900Y-75793600D03*
D17*
X86104900Y-75793600D03*
%TD*%
D16*
%TO.C,D12*%
X112853300Y-94742000D03*
D17*
X105053300Y-94742000D03*
%TD*%
D16*
%TO.C,D7*%
X74956500Y-75793600D03*
D17*
X67156500Y-75793600D03*
%TD*%
D16*
%TO.C,D5*%
X93904900Y-56845200D03*
D17*
X86104900Y-56845200D03*
%TD*%
D16*
%TO.C,D3*%
X112853300Y-37896800D03*
D17*
X105053300Y-37896800D03*
%TD*%
D16*
%TO.C,D1*%
X74956500Y-37896800D03*
D17*
X67156500Y-37896800D03*
%TD*%
D16*
%TO.C,D9*%
X112853300Y-75793600D03*
D17*
X105053300Y-75793600D03*
%TD*%
D16*
%TO.C,D10*%
X74956500Y-94742000D03*
D17*
X67156500Y-94742000D03*
%TD*%
D16*
%TO.C,D11*%
X93904900Y-94742000D03*
D17*
X86104900Y-94742000D03*
%TD*%
D16*
%TO.C,D4*%
X74956500Y-56845200D03*
D17*
X67156500Y-56845200D03*
%TD*%
D12*
%TO.C,K2*%
X87484900Y-28369700D03*
D13*
X93259900Y-29639700D03*
D14*
X84924900Y-33159700D03*
D15*
X90004900Y-33159700D03*
D14*
X95084900Y-33159700D03*
%TD*%
D12*
%TO.C,K4*%
X68536500Y-47318100D03*
D13*
X74311500Y-48588100D03*
D14*
X65976500Y-52108100D03*
D15*
X71056500Y-52108100D03*
D14*
X76136500Y-52108100D03*
%TD*%
D12*
%TO.C,K6*%
X106433300Y-47318100D03*
D13*
X112208300Y-48588100D03*
D14*
X103873300Y-52108100D03*
D15*
X108953300Y-52108100D03*
D14*
X114033300Y-52108100D03*
%TD*%
D12*
%TO.C,K8*%
X87484900Y-66266500D03*
D13*
X93259900Y-67536500D03*
D14*
X84924900Y-71056500D03*
D15*
X90004900Y-71056500D03*
D14*
X95084900Y-71056500D03*
%TD*%
D12*
%TO.C,K10*%
X68536500Y-85214900D03*
D13*
X74311500Y-86484900D03*
D14*
X65976500Y-90004900D03*
D15*
X71056500Y-90004900D03*
D14*
X76136500Y-90004900D03*
%TD*%
D12*
%TO.C,K11*%
X87484900Y-85214900D03*
D13*
X93259900Y-86484900D03*
D14*
X84924900Y-90004900D03*
D15*
X90004900Y-90004900D03*
D14*
X95084900Y-90004900D03*
%TD*%
D12*
%TO.C,K12*%
X106433300Y-85214900D03*
D13*
X112208300Y-86484900D03*
D14*
X103873300Y-90004900D03*
D15*
X108953300Y-90004900D03*
D14*
X114033300Y-90004900D03*
%TD*%
M02*
