%TF.GenerationSoftware,KiCad,Pcbnew,9.0.2*%
%TF.CreationDate,2026-02-28T13:04:45-05:00*%
%TF.ProjectId,MacroPad,4d616372-6f50-4616-942e-6b696361645f,rev?*%
%TF.SameCoordinates,Original*%
%TF.FileFunction,Profile,NP*%
%FSLAX46Y46*%
G04 Gerber Fmt 4.6, Leading zero omitted, Abs format (unit mm)*
G04 Created by KiCad (PCBNEW 9.0.2) date 2026-02-28 13:04:45*
%MOMM*%
%LPD*%
G01*
G04 APERTURE LIST*
%TA.AperFunction,Profile*%
%ADD10C,0.050000*%
%TD*%
G04 APERTURE END LIST*
D10*
X101000000Y-80500000D02*
G75*
G02*
X97995352Y-80500000I-1502324J0D01*
G01*
X97995352Y-80500000D02*
G75*
G02*
X101000000Y-80500000I1502324J0D01*
G01*
X82002324Y-80500000D02*
G75*
G02*
X78997676Y-80500000I-1502324J0D01*
G01*
X78997676Y-80500000D02*
G75*
G02*
X82002324Y-80500000I1502324J0D01*
G01*
X82002324Y-61497676D02*
G75*
G02*
X78997676Y-61497676I-1502324J0D01*
G01*
X78997676Y-61497676D02*
G75*
G02*
X82002324Y-61497676I1502324J0D01*
G01*
X100981424Y-61497676D02*
G75*
G02*
X97976776Y-61497676I-1502324J0D01*
G01*
X97976776Y-61497676D02*
G75*
G02*
X100981424Y-61497676I1502324J0D01*
G01*
X100981424Y-42633900D02*
G75*
G02*
X97976776Y-42633900I-1502324J0D01*
G01*
X97976776Y-42633900D02*
G75*
G02*
X100981424Y-42633900I1502324J0D01*
G01*
X80530700Y-23303369D02*
X80530700Y-23385500D01*
X80830700Y-23685500D02*
X115427500Y-23685500D01*
X64582300Y-22303369D02*
X79530700Y-22303369D01*
X61582300Y-25303369D02*
G75*
G02*
X64582300Y-22303370I3000000J-1D01*
G01*
X64582300Y-99479100D02*
G75*
G02*
X61582300Y-96479100I0J3000000D01*
G01*
X118427500Y-96479100D02*
G75*
G02*
X115427500Y-99479100I-3000000J0D01*
G01*
X115427500Y-23685500D02*
G75*
G02*
X118427500Y-26685500I0J-3000000D01*
G01*
X115427500Y-99479100D02*
X64582300Y-99479100D01*
X61582300Y-96479100D02*
X61582300Y-25303369D01*
X118427500Y-26685500D02*
X118427500Y-96479100D01*
X79530700Y-22303369D02*
G75*
G02*
X80530731Y-23303369I0J-1000031D01*
G01*
X80830700Y-23685500D02*
G75*
G02*
X80530700Y-23385500I0J300000D01*
G01*
M02*
