M48
; DRILL file {KiCad 9.0.2} date 2026-02-28T13:04:42-0500
; FORMAT={-:-/ absolute / metric / decimal}
; #@! TF.CreationDate,2026-02-28T13:04:42-05:00
; #@! TF.GenerationSoftware,Kicad,Pcbnew,9.0.2
; #@! TF.FileFunction,Plated,1,2,PTH
FMAT,2
METRIC
; #@! TA.AperFunction,Plated,PTH,ViaDrill
T1C0.300
; #@! TA.AperFunction,Plated,PTH,ComponentDrill
T2C0.700
; #@! TA.AperFunction,Plated,PTH,ComponentDrill
T3C1.092
; #@! TA.AperFunction,Plated,PTH,ComponentDrill
T4C1.500
%
G90
G05
T1
X84.323Y-45.005
X85.643Y-44.627
T2
X67.156Y-37.897
X67.156Y-56.845
X67.156Y-75.794
X67.156Y-94.742
X74.956Y-37.897
X74.956Y-56.845
X74.956Y-75.794
X74.956Y-94.742
X86.105Y-37.897
X86.105Y-56.845
X86.105Y-75.794
X86.105Y-94.742
X93.905Y-37.897
X93.905Y-56.845
X93.905Y-75.794
X93.905Y-94.742
X105.053Y-37.897
X105.053Y-56.845
X105.053Y-75.794
X105.053Y-94.742
X112.853Y-37.897
X112.853Y-56.845
X112.853Y-75.794
X112.853Y-94.742
T3
X63.436Y-23.927
X63.436Y-26.467
X63.436Y-29.007
X63.436Y-31.547
X63.436Y-34.087
X63.436Y-36.627
X63.436Y-39.167
X63.436Y-41.707
X63.436Y-44.247
X63.436Y-46.787
X63.436Y-49.327
X63.436Y-51.867
X78.676Y-23.927
X78.676Y-26.467
X78.676Y-29.007
X78.676Y-31.547
X78.676Y-34.087
X78.676Y-36.627
X78.676Y-39.167
X78.676Y-41.707
X78.676Y-44.247
X78.676Y-46.787
X78.676Y-49.327
X78.676Y-51.867
T4
G00X68.556Y-28.659
M15
G01X68.517Y-28.08
M16
G05
G00X68.556Y-47.607
M15
G01X68.517Y-47.029
M16
G05
G00X68.556Y-66.556
M15
G01X68.517Y-65.977
M16
G05
G00X68.556Y-85.504
M15
G01X68.517Y-84.926
M16
G05
G00X74.916Y-30.589
M15
G01X73.707Y-28.691
M16
G05
G00X74.916Y-49.537
M15
G01X73.707Y-47.639
M16
G05
G00X74.916Y-68.485
M15
G01X73.707Y-66.588
M16
G05
G00X74.916Y-87.434
M15
G01X73.707Y-85.536
M16
G05
G00X87.505Y-28.659
M15
G01X87.465Y-28.08
M16
G05
G00X87.505Y-47.607
M15
G01X87.465Y-47.029
M16
G05
G00X87.505Y-66.556
M15
G01X87.465Y-65.977
M16
G05
G00X87.505Y-85.504
M15
G01X87.465Y-84.926
M16
G05
G00X93.864Y-30.589
M15
G01X92.655Y-28.691
M16
G05
G00X93.864Y-49.537
M15
G01X92.655Y-47.639
M16
G05
G00X93.864Y-68.485
M15
G01X92.655Y-66.588
M16
G05
G00X93.864Y-87.434
M15
G01X92.655Y-85.536
M16
G05
G00X106.453Y-28.659
M15
G01X106.414Y-28.08
M16
G05
G00X106.453Y-47.607
M15
G01X106.414Y-47.029
M16
G05
G00X106.453Y-66.556
M15
G01X106.414Y-65.977
M16
G05
G00X106.453Y-85.504
M15
G01X106.414Y-84.926
M16
G05
G00X112.813Y-30.589
M15
G01X111.604Y-28.691
M16
G05
G00X112.813Y-49.537
M15
G01X111.604Y-47.639
M16
G05
G00X112.813Y-68.485
M15
G01X111.604Y-66.588
M16
G05
G00X112.813Y-87.434
M15
G01X111.604Y-85.536
M16
G05
M30
